<svg width="129" height="41" viewBox="0 0 129 41" fill="none" xmlns="http://www.w3.org/2000/svg">
<g clip-path="url(#clip0_4619_82712)">
<mask id="mask0_4619_82712" style="mask-type:luminance" maskUnits="userSpaceOnUse" x="0" y="0" width="9" height="9">
<path d="M0.177734 4.63682C0.177734 6.91667 2.01857 8.78731 4.32692 8.78731C6.60605 8.78731 8.47611 6.9459 8.47611 4.63682C8.47611 2.35698 6.63527 0.486328 4.32692 0.486328C2.01857 0.486328 0.177734 2.35698 0.177734 4.63682Z" fill="white"/>
</mask>
<g mask="url(#mask0_4619_82712)">
<path d="M8.38847 -0.244141L9.1774 8.69988L0.23619 9.48905L-0.552734 0.545041L8.38847 -0.244141Z" fill="url(#paint0_linear_4619_82712)"/>
</g>
<mask id="mask1_4619_82712" style="mask-type:luminance" maskUnits="userSpaceOnUse" x="0" y="10" width="11" height="26">
<path d="M0.995605 10.4238V23.606C0.995605 24.5706 1.08326 25.5059 1.2878 26.4412C1.34624 26.7627 1.4339 27.055 1.52156 27.3473C1.78453 28.2242 2.13517 29.101 2.57346 29.8902C2.71956 30.1533 2.86566 30.4163 3.01176 30.6794C3.09942 30.8255 3.2163 30.9717 3.30395 31.1178C3.39161 31.264 3.50849 31.4394 3.62537 31.5563C4.2682 32.4039 4.9987 33.1931 5.84607 33.8653C5.99216 34.0115 6.13826 34.1284 6.31358 34.2453C6.83954 34.6545 7.3947 35.0053 7.9791 35.3268C8.06675 35.3852 8.18363 35.4145 8.27129 35.4729C8.24207 35.2976 8.24207 35.1514 8.24207 34.976C8.24207 33.1931 9.03101 31.5855 10.2582 30.4456C10.7257 30.0071 10.7257 29.3057 10.1998 28.8964C8.59271 27.6688 7.5408 25.7397 7.5408 23.5476V12.0314V10.4238H0.995605Z" fill="white"/>
</mask>
<g mask="url(#mask1_4619_82712)">
<path d="M10.7259 9.57617L12.9758 35.2975L1.0834 36.3498L-1.1665 10.5992L10.7259 9.57617Z" fill="url(#paint1_linear_4619_82712)"/>
</g>
<path d="M27.7023 23.6062C27.7023 24.5707 27.6146 25.5061 27.4101 26.4414C27.3517 26.7629 27.264 27.0552 27.1764 27.3475C27.001 27.9613 26.7965 28.5166 26.5335 29.072C26.4166 29.3643 26.2705 29.6273 26.1244 29.8904C25.9783 30.1534 25.8322 30.4165 25.6861 30.6796C24.9264 31.9072 23.9622 32.9886 22.8518 33.8947C22.735 34.0116 22.5889 34.0993 22.4428 34.2162C21.7999 34.7131 21.1279 35.1516 20.3682 35.5315C20.3974 35.3562 20.3974 35.21 20.3974 35.0347C20.3974 33.2225 19.6377 31.6149 18.3812 30.5042C17.9137 30.0658 17.9137 29.3643 18.4397 28.9551C20.3974 27.4644 21.537 24.8922 20.9234 22.0863C20.3974 19.6311 18.4397 17.6143 15.9852 17.0589C11.5731 16.0067 7.62842 19.368 7.62842 23.6062V12.09C8.12515 11.7977 8.62188 11.5347 9.17706 11.3301C9.44003 11.2132 9.70301 11.1255 9.93677 11.0378C10.229 10.9501 10.5212 10.8332 10.8134 10.7747C11.1056 10.687 11.3977 10.6286 11.6607 10.5701C12.5373 10.3948 13.4431 10.3071 14.3489 10.3071C21.7123 10.2486 27.7023 16.2113 27.7023 23.6062Z" fill="#6834FF"/>
<path d="M32.7866 2.9122C32.7866 1.97688 33.4879 1.27539 34.4229 1.27539C35.358 1.27539 36.0884 1.97688 36.0884 2.9122C36.0884 3.84752 35.3872 4.54901 34.4229 4.54901C33.5171 4.54901 32.7866 3.81829 32.7866 2.9122Z" fill="#AB8FFF"/>
<path d="M35.7085 6.41992H33.1372V18.1699H35.7085V6.41992Z" fill="white"/>
<path d="M37.8999 6.41924H40.4712V7.90991C41.4063 6.76999 42.7796 6.12695 44.4451 6.12695C47.221 6.12695 49.091 7.96837 49.091 10.7451V14.5741C49.091 15.2464 49.4709 15.6556 50.1429 15.6556H50.3767V18.14H49.6462C47.6008 18.14 46.5197 17.117 46.5197 15.1587V11.622C46.5197 9.83902 45.3801 8.64063 43.5977 8.64063C41.7277 8.64063 40.5005 9.86824 40.5005 11.6804V18.1692H37.9291V6.41924H37.8999Z" fill="white"/>
<path d="M52.1007 14.544V8.75667H50.1138V6.41836H51.3118C51.8962 6.41836 52.2468 6.09685 52.2468 5.48304V3.23242H54.672V6.41836H57.5648V8.75667H54.672V14.1348C54.672 15.1578 55.3149 15.8008 56.396 15.8008H57.5648V18.1684H56.0161C53.474 18.1684 52.1007 16.8823 52.1007 14.544Z" fill="white"/>
<path d="M58.5874 12.2943C58.5874 8.78684 61.2756 6.15625 64.8404 6.15625C68.4344 6.15625 71.1226 8.81608 71.1226 12.3235C71.1226 12.5866 71.0934 13.025 71.0642 13.2881H61.3341C61.7139 14.9834 63.1165 16.1233 64.9573 16.1233C66.3014 16.1233 67.4994 15.5387 68.0838 14.6326H70.9473C70.0123 16.9125 67.7039 18.4616 64.9281 18.4616C61.2756 18.4324 58.5874 15.8018 58.5874 12.2943ZM61.3633 11.1836H68.3468C67.9669 9.57603 66.5644 8.49456 64.8404 8.49456C63.1457 8.46533 61.7723 9.5468 61.3633 11.1836Z" fill="white"/>
<path d="M80.0347 6.41992H82.9858L86.4045 15.0132L88.1577 10.775C88.8298 9.05052 89.0927 7.64753 88.8298 6.41992H91.4888C91.7517 7.76445 91.4888 9.37204 90.6706 11.3304L87.7487 18.1699H85.0604L80.0347 6.41992Z" fill="white"/>
<path d="M92.9204 2.9122C92.9204 1.97688 93.6217 1.27539 94.5567 1.27539C95.4917 1.27539 96.2222 1.97688 96.2222 2.9122C96.2222 3.84752 95.521 4.54901 94.5567 4.54901C93.6217 4.54901 92.9204 3.81829 92.9204 2.9122Z" fill="#AB8FFF"/>
<path d="M95.8135 6.41992H93.2422V18.1699H95.8135V6.41992Z" fill="white"/>
<path d="M78.6614 6.41992V8.99206H75.2427C75.2427 7.55985 76.3823 6.41992 77.814 6.41992H78.6614Z" fill="white"/>
<path d="M75.2427 6.41992H72.6714V18.1699H75.2427V6.41992Z" fill="white"/>
<path d="M97.3037 12.2943C97.3037 8.78684 99.9919 6.15625 103.557 6.15625C107.151 6.15625 109.839 8.81608 109.839 12.3235C109.839 12.5866 109.81 13.025 109.78 13.2881H100.08C100.459 14.9834 101.862 16.1233 103.703 16.1233C105.047 16.1233 106.245 15.5387 106.829 14.6326H109.693C108.758 16.9125 106.449 18.4616 103.674 18.4616C99.9919 18.4324 97.3037 15.8018 97.3037 12.2943ZM100.08 11.1836H107.063C106.683 9.57603 105.281 8.49456 103.557 8.49456C101.862 8.46533 100.489 9.5468 100.08 11.1836Z" fill="white"/>
<path d="M109.751 6.41992H112.673L115.449 14.9547L118.312 6.41992H120.971L123.835 14.9547L125.267 10.775C125.793 9.02129 126.114 7.67676 125.851 6.41992H128.51C128.773 7.79368 128.393 9.34281 127.692 11.3596L125.179 18.1407H122.52L119.627 9.4305L116.734 18.1407H114.075L109.751 6.41992Z" fill="white"/>
<path d="M33.0498 19.7188H35.0367V25.623C36.0302 24.1615 37.6373 23.2262 39.595 23.2262C42.9553 23.2262 45.4681 25.8568 45.4681 29.3643C45.4681 32.8717 42.9553 35.5023 39.595 35.5023C37.6373 35.5023 36.0302 34.5962 35.0367 33.1056V35.21H33.0498V19.7188ZM43.3936 29.3643C43.3936 26.9383 41.6112 25.1261 39.1859 25.1261C36.7899 25.1261 35.0075 26.9383 35.0075 29.3643C35.0075 31.7903 36.7899 33.6024 39.1859 33.6024C41.6112 33.6024 43.3936 31.7903 43.3936 29.3643Z" fill="white"/>
<path d="M46.4907 30.8832V23.5175H48.4777V30.2986C48.4777 32.2862 49.7341 33.5722 51.6918 33.5722C53.7372 33.5722 55.1105 32.2277 55.1105 30.2401V23.4883H57.0974V32.14C57.0974 32.8415 57.5357 33.3092 58.2662 33.3092H58.4708V35.209H57.8864C56.4254 35.209 55.4904 34.566 55.2274 33.3676C54.3216 34.7121 52.919 35.4721 51.0782 35.4721C48.3316 35.5013 46.4907 33.6599 46.4907 30.8832Z" fill="white"/>
<path d="M58.5 29.3643C58.5 25.886 61.0129 23.2262 64.3439 23.2262C66.3016 23.2262 67.9087 24.1323 68.9022 25.623V19.7188H70.8891V32.141C70.8891 32.8425 71.3566 33.3102 72.0579 33.3102H72.2917V35.21H71.6781C70.1002 35.21 69.1652 34.4501 68.9606 33.0471C67.9672 34.5378 66.3309 35.4731 64.3732 35.4731C61.0129 35.5023 58.5 32.8717 58.5 29.3643ZM68.9314 29.3643C68.9314 26.9383 67.149 25.1261 64.753 25.1261C62.3278 25.1261 60.5454 26.9383 60.5454 29.3643C60.5454 31.7903 62.3278 33.6024 64.753 33.6024C67.1198 33.6024 68.9314 31.7903 68.9314 29.3643Z" fill="white"/>
<path d="M72.3794 29.3643C72.3794 25.886 74.8923 23.2262 78.2233 23.2262C80.181 23.2262 81.7881 24.1323 82.7816 25.623V19.7188H84.7685V32.141C84.7685 32.8425 85.236 33.3102 85.9373 33.3102H86.1711V35.21H85.5575C83.9796 35.21 83.0446 34.4501 82.84 33.0471C81.8465 34.5378 80.2103 35.4731 78.2525 35.4731C74.8923 35.5023 72.3794 32.8717 72.3794 29.3643ZM82.7816 29.3643C82.7816 26.9383 80.9992 25.1261 78.6032 25.1261C76.1779 25.1261 74.3956 26.9383 74.3956 29.3643C74.3956 31.7903 76.1779 33.6024 78.6032 33.6024C80.9992 33.6024 82.7816 31.7903 82.7816 29.3643Z" fill="white"/>
<path d="M86.9014 30.3571V23.5176H88.8883V29.8018C88.8883 31.7893 90.1447 33.0754 92.1025 33.0754C94.1478 33.0754 95.5212 31.7601 95.5212 29.7726V23.5468H97.5081V34.683C97.5081 37.8105 95.229 39.8565 92.1609 39.8565C89.648 39.8565 87.6319 38.4243 87.0475 36.1152H89.0928C89.5019 37.2844 90.7876 38.0443 92.1901 38.0443C94.0602 38.0443 95.5504 36.729 95.5504 34.7707V32.9877C94.6446 34.2738 93.242 34.9753 91.5181 34.9753C88.7422 34.9753 86.9014 33.1339 86.9014 30.3571Z" fill="white"/>
</g>
<defs>
<linearGradient id="paint0_linear_4619_82712" x1="4.03741" y1="1.5983" x2="6.86304" y2="33.8811" gradientUnits="userSpaceOnUse">
<stop stop-color="#AB8FFF"/>
<stop offset="0.9897" stop-color="#693AF4"/>
<stop offset="1" stop-color="#693AF4"/>
</linearGradient>
<linearGradient id="paint1_linear_4619_82712" x1="3.74829" y1="-1.63658" x2="6.84335" y2="33.7246" gradientUnits="userSpaceOnUse">
<stop stop-color="#AB8FFF"/>
<stop offset="0.9897" stop-color="#693AF4"/>
<stop offset="1" stop-color="#693AF4"/>
</linearGradient>
<clipPath id="clip0_4619_82712">
<rect width="128.85" height="40" fill="white" transform="translate(0 0.246094)"/>
</clipPath>
</defs>
</svg>
