<svg xmlns="http://www.w3.org/2000/svg" xmlns:xlink="http://www.w3.org/1999/xlink" id="Layer_1" x="0" y="0" version="1.1" viewBox="0 0 269.7 322" style="enable-background:new 0 0 269.7 322" xml:space="preserve"><style type="text/css">.st0,.st1{fill:none;stroke:#fa134a;stroke-width:2;stroke-linecap:round;stroke-linejoin:round;stroke-miterlimit:24.949}.st1{stroke-width:1.9522;stroke-miterlimit:7.8652}</style><g id="SvgjsG1025" transform="matrix(3.172085492776579,0,0,3.172085492776579,9.241871760835132,-10.298996017710358)"><g id="Page-1"><g id="Artboard" transform="translate(-5337.000000, -276.000000)"><g id="Asset-41LETTERS2" transform="translate(5338.000000, 277.040000)"><polyline id="Path" points="1.4 13.7 1.4 39.9 1.4 56.7 1.4 57.3 1.4 66 1.4 74.1 1.4 74.6 1.4 91.3" class="st0"/><polyline id="Path_00000140730319492574403210000012165813372037638032_" points="15.9 5.4 15.9 5.4 9.7 9 1.4 13.7" class="st0"/><polyline id="Path_00000057136917164881439100000003492977328396314255_" points="32.4 14.8 15.9 5.4 15.9 5.4" class="st0"/><polyline id="Path_00000171709194581266228320000004240745996656138660_" points="46.8 30.4 46.9 30.4 61.3 38.8" class="st0"/><polyline id="Path_00000061449961427358510160000006889582296356902590_" points="46.8 13.7 46.9 13.7 61.3 5.4 61.3 5.4" class="st0"/><polyline id="Path_00000008136246664407123270000005052810700646839701_" points="75.8 13.7 75.8 13.7 61.3 5.4 61.3 5.4" class="st0"/><polyline id="Path_00000088850878991341050570000005934225493700466105_" points="61.3 22.1 46.9 13.7 46.8 13.7" class="st0"/><polyline id="Path_00000101800232322647370720000014337952480039991185_" points="46.9 30.4 46.8 30.4 32.4 38.8 15.9 48.3" class="st0"/><polyline id="Path_00000111911763731860390570000015979960562184214183_" points="75.8 13.7 75.8 13.7 75.8 13.7 61.3 22.1 61.3 22.1" class="st0"/><polyline id="Path_00000154423638902408348330000012774746742008616124_" points="16 65.7 16 65.7 32.4 56.3 46.8 47.9 61.3 39.6" class="st0"/><polyline id="Path_00000129164415547399515550000004065836756684688799_" points="1.4 91.3 15.9 83 15.9 83" class="st0"/><polyline id="Path_00000152976916826383445870000013199289644160618127_" points="30.9 74.3 32.4 73.5 46.8 65.1 61.3 56.8" class="st0"/><polyline id="Path_00000093174321813352502460000013290406046191097013_" points="15.9 83 15.9 83 30.4 91.4 30.4 91.4" class="st0"/><polyline id="Path_00000043433500825032048370000003675547780366419123_" points="46.8 92.2 61.3 100.5 61.3 100.5 61.3 100.6" class="st0"/><polyline id="Path_00000063626304030002686830000001966591084670269569_" points="32.4 75.2 30.9 74.3 16 65.7 15.9 65.7" class="st0"/><polyline id="Path_00000094578676276179068740000011852922417084628926_" points="1.4 91.3 15.9 99.7 15.9 99.7" class="st0"/><polyline id="Path_00000178194688196564139460000003376726478709001089_" points="32.4 90.2 32.4 90.2 32.4 90.2 15.9 99.7 15.9 99.7 15.9 99.7" class="st0"/><polyline id="Path_00000170273081959166424920000017416506847552076953_" points="75.8 92.2 68.8 96.2 61.3 100.5 61.3 100.5" class="st0"/><polyline id="Path_00000054951418999355885410000001466340655389613745_" points="15.9 48.3 15.9 31.6 15.9 12.6 15.9 5.4 15.9 5.4" class="st0"/><polyline id="Path_00000028292712541707863350000011369868215151321774_" points="16 66.1 15.9 74.3 15.9 83 15.9 83" class="st0"/><line id="Path_00000160162195141331486120000012667411300642849975_" x1="15.9" x2="15.9" y1="99.7" y2="99.7" class="st0"/><polyline id="Path_00000070815471624904065300000014126494388491197596_" points="32.4 73.5 32.4 75.2 32.4 83.8 32.4 90.2" class="st0"/><polyline id="Path_00000113335134131402234420000004733174717931812768_" points="32.4 14.8 32.4 22.1 32.4 38.8" class="st0"/><polyline id="Path_00000087408647303522058920000016799172204393865647_" points="46.8 65.1 46.8 81.8 46.8 83.6 46.8 92.2" class="st0"/><polyline id="Path_00000041285046405550562480000008859519137676778672_" points="46.8 30.4 46.8 30.4 46.8 23.2 46.8 13.7" class="st0"/><polyline id="Path_00000119826413503077262280000003588378368202425728_" points="61.3 22.1 61.3 22.1 61.3 31.6 61.3 38.8 61.3 39.6" class="st0"/><polyline id="Path_00000003783990786907151640000010984972443579321253_" points="61.3 100.6 61.3 100.5 61.3 91.9 61.3 73.5 61.3 56.8" class="st0"/><polyline id="Path_00000121240537051618297500000015545537501660880783_" points="75.8 13.7 75.8 13.7 75.8 30.4 75.8 31.2 75.8 39.9 75.8 47.1 75.8 48.4 75.8 65.1 75.8 92.2" class="st0"/></g></g></g></g><g id="SvgjsG1026"><path d="M-5,84" class="st1" transform="matrix(1,0,0,1,140,77)"/></g></svg>